<?xml version="1.0" standalone="no"?>
<!DOCTYPE svg PUBLIC "-//W3C//DTD SVG 20010904//EN"
 "http://www.w3.org/TR/2001/REC-SVG-20010904/DTD/svg10.dtd">
<svg version="1.0" xmlns="http://www.w3.org/2000/svg"
 width="1024.000000pt" height="1024.000000pt" viewBox="0 0 1024.000000 1024.000000"
 preserveAspectRatio="xMidYMid meet">

<g transform="translate(0.000000,1024.000000) scale(0.100000,-0.100000)"
fill="#FF5733" stroke="none">
<path d="M5070 8100 c-280 -52 -473 -266 -497 -549 -5 -64 -4 -74 9 -69 33 13
196 48 249 53 l55 6 12 45 c60 225 348 274 481 81 16 -24 36 -62 43 -84 l12
-41 105 -17 c57 -9 128 -25 158 -35 l53 -17 0 52 c0 71 -33 194 -72 268 -43
81 -164 202 -243 243 -111 58 -260 84 -365 64z"/>
<path d="M5035 7320 c-244 -15 -536 -105 -738 -226 -137 -83 -303 -230 -423
-374 -143 -172 -267 -441 -318 -685 -25 -121 -36 -299 -36 -605 0 -318 -5
-367 -60 -610 -72 -320 -183 -587 -335 -805 -86 -123 -136 -179 -370 -410
-177 -175 -207 -209 -236 -270 -63 -129 -42 -245 64 -349 108 -104 329 -190
622 -240 269 -46 758 -99 1013 -109 l82 -4 0 158 0 157 -72 6 c-40 3 -113 8
-163 12 -115 7 -449 48 -613 75 -170 28 -462 104 -462 120 0 24 464 100 750
124 36 3 117 9 180 15 353 29 572 37 1165 38 665 1 1184 -15 1415 -43 19 -2
67 -7 105 -10 189 -17 706 -102 723 -120 2 -2 -21 -12 -51 -23 -185 -70 -674
-152 -1042 -177 -49 -3 -118 -8 -152 -11 l-63 -6 0 -154 c0 -121 3 -156 14
-160 7 -3 128 4 267 15 642 52 1142 149 1328 258 127 75 211 186 211 282 0
144 -172 352 -375 453 -118 59 -257 102 -510 157 -63 14 -350 57 -471 71 -188
21 -392 31 -816 39 -474 9 -466 8 -504 66 -17 25 -21 77 -9 114 3 12 25 31 47
42 40 21 50 21 457 16 229 -3 430 -7 446 -10 17 -3 82 -8 145 -12 303 -16 733
-83 899 -140 41 -14 76 -24 77 -22 2 1 -27 47 -63 102 -156 238 -271 542 -327
867 -14 79 -28 159 -31 178 -4 19 -10 217 -15 440 -7 348 -11 418 -28 495
-109 492 -431 898 -885 1115 -279 134 -526 181 -842 160z m1050 -3604 c28 -2
111 -7 185 -11 78 -4 146 -13 162 -21 42 -22 68 -62 68 -106 0 -57 -58 -114
-110 -110 -3 0 -86 3 -185 7 -99 4 -187 9 -194 11 -8 3 -181 5 -383 5 -400 -1
-414 1 -456 54 -40 50 -21 138 36 170 24 14 76 15 427 10 220 -3 423 -7 450
-9z"/>
<path d="M4553 3054 c-9 -25 5 -404 17 -454 29 -117 122 -252 226 -328 195
-144 471 -158 671 -35 133 82 236 213 277 352 23 79 35 459 15 472 -8 5 -276
9 -607 9 -530 0 -593 -2 -599 -16z"/>
</g>
</svg>
